<svg width="13" height="13" viewBox="0 0 13 13" fill="none" xmlns="http://www.w3.org/2000/svg">
<path fill-rule="evenodd" clip-rule="evenodd" d="M0 5.77778C0 3.0541 -8.60956e-08 1.69227 0.846134 0.846134C1.69227 -8.60956e-08 3.0541 0 5.77778 0H7.22222C9.94587 0 11.3078 -8.60956e-08 12.1538 0.846134C13 1.69227 13 3.0541 13 5.77778V7.22222C13 9.94587 13 11.3078 12.1538 12.1538C11.3078 13 9.94587 13 7.22222 13H5.77778C3.0541 13 1.69227 13 0.846134 12.1538C-8.60956e-08 11.3078 0 9.94587 0 7.22222V5.77778ZM10.8333 3.25C10.8333 3.84831 10.3483 4.33333 9.75 4.33333C9.15171 4.33333 8.66667 3.84831 8.66667 3.25C8.66667 2.65169 9.15171 2.16667 9.75 2.16667C10.3483 2.16667 10.8333 2.65169 10.8333 3.25ZM7.94444 7.22222C7.94444 8.01999 7.29777 8.66667 6.5 8.66667C5.70223 8.66667 5.05556 8.01999 5.05556 7.22222C5.05556 6.42446 5.70223 5.77778 6.5 5.77778C7.29777 5.77778 7.94444 6.42446 7.94444 7.22222ZM9.38889 7.22222C9.38889 8.81768 8.09546 10.1111 6.5 10.1111C4.90451 10.1111 3.61111 8.81768 3.61111 7.22222C3.61111 5.62676 4.90451 4.33333 6.5 4.33333C8.09546 4.33333 9.38889 5.62676 9.38889 7.22222Z" fill="white"/>
</svg>
