<svg width="15" height="13" viewBox="0 0 15 13" fill="none" xmlns="http://www.w3.org/2000/svg">
<path d="M14.8058 1.42449C14.2513 1.66986 13.6632 1.83107 13.0611 1.9028C13.6953 1.52348 14.1699 0.926578 14.3966 0.223279C13.8002 0.577053 13.1476 0.826022 12.4671 0.959379C12.0503 0.515212 11.5096 0.206556 10.9151 0.0734486C10.3207 -0.0596587 9.70004 -0.0110745 9.13357 0.212899C8.56711 0.436873 8.08102 0.8259 7.73837 1.32952C7.39571 1.83313 7.21229 2.4281 7.21191 3.03723C7.21143 3.2703 7.23748 3.50267 7.28956 3.72985C6.08221 3.66913 4.90113 3.35523 3.82295 2.80852C2.74477 2.26181 1.7936 1.4945 1.03116 0.556388C0.642692 1.22498 0.523613 2.01648 0.69816 2.76978C0.872708 3.52307 1.32776 4.18154 1.9707 4.61115C1.48846 4.59626 1.01686 4.46578 0.595557 4.23067V4.27105C0.595821 4.97153 0.838114 5.65041 1.28142 6.19277C1.72474 6.73513 2.34183 7.10765 3.02826 7.24728C2.76734 7.31827 2.49811 7.35405 2.22771 7.35366C2.03721 7.35368 1.84714 7.33548 1.66011 7.29931C1.85434 7.90284 2.23228 8.43061 2.74111 8.80885C3.24994 9.1871 3.86423 9.39692 4.49813 9.40899C3.42139 10.2527 2.09239 10.7102 0.724452 10.708C0.482352 10.7084 0.240443 10.6944 0 10.6661C1.38963 11.559 3.00709 12.0327 4.65886 12.0304C5.79569 12.038 6.92272 11.8197 7.97449 11.3882C9.02627 10.9567 9.98184 10.3205 10.7857 9.51662C11.5896 8.71274 12.2258 7.75716 12.6573 6.70539C13.0888 5.65361 13.3071 4.52658 13.2995 3.38975C13.2995 3.25775 13.2995 3.1273 13.2909 2.99685C13.8855 2.5672 14.3988 2.03501 14.8066 1.42526L14.8058 1.42449Z" fill="white"/>
</svg>
