<svg width="22" height="22" viewBox="0 0 22 22" fill="none" xmlns="http://www.w3.org/2000/svg">
<path d="M11.5679 15.6216C11.4222 15.781 11.2162 15.8718 11.0002 15.8718C10.7842 15.8718 10.5783 15.781 10.4325 15.6216L6.32994 11.1345C6.04327 10.8209 6.06506 10.3344 6.3786 10.0477C6.69215 9.76102 7.1787 9.78277 7.46537 10.0963L10.231 13.1212V1.76923C10.231 1.3444 10.5754 1 11.0002 1C11.425 1 11.7694 1.3444 11.7694 1.76923V13.1212L14.5351 10.0963C14.8218 9.78277 15.3083 9.76102 15.6219 10.0477C15.9354 10.3344 15.9571 10.8209 15.6705 11.1345L11.5679 15.6216Z" fill="#1C274C" stroke="#1C274C"/>
<path d="M2.53846 14.0769C2.53846 13.6521 2.19407 13.3077 1.76923 13.3077C1.3444 13.3077 1 13.6521 1 14.0769V14.1332C0.99998 15.5359 0.999959 16.6665 1.11951 17.5557C1.24363 18.4789 1.50916 19.2561 2.12651 19.8734C2.74387 20.4909 3.52117 20.7564 4.44436 20.8805C5.33356 21 6.46414 21 7.8668 21H14.1332C15.5359 21 16.6665 21 17.5557 20.8805C18.4789 20.7564 19.2561 20.4909 19.8735 19.8734C20.4909 19.2561 20.7564 18.4789 20.8805 17.5557C21 16.6665 21 15.5359 21 14.1332V14.0769C21 13.6521 20.6556 13.3077 20.2308 13.3077C19.806 13.3077 19.4615 13.6521 19.4615 14.0769C19.4615 15.5491 19.4599 16.5759 19.3558 17.3507C19.2546 18.1033 19.0695 18.5017 18.7856 18.7856C18.5017 19.0695 18.1033 19.2546 17.3507 19.3558C16.5759 19.4599 15.5491 19.4615 14.0769 19.4615H7.92308C6.45086 19.4615 5.42407 19.4599 4.64935 19.3558C3.89677 19.2546 3.49823 19.0695 3.21437 18.7856C2.93051 18.5017 2.74544 18.1033 2.64426 17.3507C2.54009 16.5759 2.53846 15.5491 2.53846 14.0769Z" fill="#1C274C" stroke="#1C274C"/>
</svg>
