<svg width="34" height="38" viewBox="0 0 34 38" fill="none" xmlns="http://www.w3.org/2000/svg">
<path d="M5.33325 37.3333C3.94436 37.3333 2.76381 36.8472 1.79159 35.875C0.819363 34.9027 0.333252 33.7222 0.333252 32.3333C0.333252 30.9444 0.819363 29.7639 1.79159 28.7916C2.76381 27.8194 3.94436 27.3333 5.33325 27.3333C6.08325 27.3333 6.80547 27.5069 7.49992 27.8541C8.19436 28.2014 8.7777 28.6666 9.24992 29.25C10.8888 28.3611 12.2221 27.1666 13.2499 25.6666C14.2777 24.1666 14.9166 22.5 15.1666 20.6666H9.99992C9.66659 21.6666 9.06936 22.4722 8.20825 23.0833C7.34714 23.6944 6.38881 24 5.33325 24C3.94436 24 2.76381 23.5139 1.79159 22.5416C0.819363 21.5694 0.333252 20.3888 0.333252 19C0.333252 17.6111 0.819363 16.4305 1.79159 15.4583C2.76381 14.4861 3.94436 14 5.33325 14C6.38881 14 7.34714 14.3055 8.20825 14.9166C9.06936 15.5277 9.66659 16.3333 9.99992 17.3333H15.1666C14.9166 15.5 14.2777 13.8333 13.2499 12.3333C12.2221 10.8333 10.8888 9.63885 9.24992 8.74996C8.7777 9.33329 8.19436 9.79857 7.49992 10.1458C6.80547 10.493 6.08325 10.6666 5.33325 10.6666C3.94436 10.6666 2.76381 10.1805 1.79159 9.20829C0.819363 8.23607 0.333252 7.05551 0.333252 5.66663C0.333252 4.27774 0.819363 3.09718 1.79159 2.12496C2.76381 1.15274 3.94436 0.666626 5.33325 0.666626C6.72214 0.666626 7.88881 1.13885 8.83325 2.08329C9.7777 3.02774 10.2777 4.1944 10.3333 5.58329C12.5833 6.74996 14.4444 8.36107 15.9166 10.4166C17.3888 12.4722 18.2777 14.7777 18.5833 17.3333H27.3333L24.6666 14.6666L26.9999 12.3333L33.6666 19L26.9999 25.6666L24.6666 23.3333L27.3333 20.6666H18.5833C18.2777 23.2222 17.4027 25.5347 15.9583 27.6041C14.5138 29.6736 12.6388 31.2777 10.3333 32.4166C10.2777 33.8055 9.7777 34.9722 8.83325 35.9166C7.88881 36.8611 6.72214 37.3333 5.33325 37.3333Z" fill="url(#paint0_linear_8007_14)"/>
<defs>
<linearGradient id="paint0_linear_8007_14" x1="16.9999" y1="0.666626" x2="16.9999" y2="37.3333" gradientUnits="userSpaceOnUse">
<stop stop-color="#5500FF"/>
<stop offset="1" stop-color="#910099"/>
</linearGradient>
</defs>
</svg>
