<?xml version="1.0" encoding="iso-8859-1"?>
<!-- Uploaded to: SVG Repo, www.svgrepo.com, Generator: SVG Repo Mixer Tools -->
<svg fill="#fff" height="20" width="20" version="1.1" id="Capa_1" xmlns="http://www.w3.org/2000/svg" xmlns:xlink="http://www.w3.org/1999/xlink" 
	 viewBox="0 0 29.686 29.686" xml:space="preserve">
<g>
	<path d="M26.473,3.291c-0.42-0.416-1.098-0.416-1.52,0L22.576,5.67c-0.42,0.416-0.42,1.1,0,1.518c0.42,0.422,1.102,0.42,1.521,0
		l2.375-2.377C26.891,4.391,26.891,3.712,26.473,3.291z"/>
	<path d="M28.61,12.135c0.594,0,1.076-0.48,1.076-1.072s-0.482-1.074-1.076-1.074h-3.361c-0.592,0-1.072,0.482-1.072,1.074
		s0.48,1.072,1.072,1.072H28.61z"/>
	<path d="M14.985,5.837L12.608,3.46c-0.422-0.418-1.1-0.418-1.521,0c-0.418,0.42-0.418,1.1,0,1.52l2.381,2.377
		c0.416,0.418,1.098,0.418,1.518,0S15.405,6.255,14.985,5.837z"/>
	<path d="M19.84,1.222c0-0.6-0.482-1.076-1.076-1.076c-0.59,0-1.074,0.477-1.074,1.076v3.357c0,0.594,0.484,1.074,1.074,1.074
		c0.594,0,1.076-0.48,1.076-1.074V1.222z"/>
	<path d="M22.475,16.362l2.375,2.379c0.418,0.42,1.1,0.42,1.52,0s0.42-1.096,0-1.52l-2.375-2.379c-0.424-0.416-1.102-0.416-1.52,0
		C22.051,15.267,22.051,15.946,22.475,16.362z"/>
	<polygon points="0,25.66 3.879,29.541 18.959,14.46 15.086,10.578 	"/>
	<polygon points="22.262,11.156 18.385,7.279 16.725,8.939 20.596,12.821 	"/>
	<g>
	</g>
	<g>
	</g>
	<g>
	</g>
	<g>
	</g>
	<g>
	</g>
	<g>
	</g>
	<g>
	</g>
	<g>
	</g>
	<g>
	</g>
	<g>
	</g>
	<g>
	</g>
	<g>
	</g>
	<g>
	</g>
	<g>
	</g>
	<g>
	</g>
</g>
</svg>