<svg width="19" height="19" viewBox="0 0 19 19" xmlns="http://www.w3.org/2000/svg">
<path d="M8.3125 3.56257L8.90625 2.37505L10.0938 1.78128L8.90625 1.18752L8.3125 0L7.71875 1.18752L6.53125 1.78128L7.71875 2.37505L8.3125 3.56257ZM2.96875 5.93762L3.95809 3.95853L5.9375 2.96881L3.95809 1.97908L2.96875 0L1.97941 1.97908L0 2.96881L1.97941 3.95853L2.96875 5.93762ZM16.0312 10.6877L15.0419 12.6668L13.0625 13.6565L15.0419 14.6462L16.0312 16.6253L17.0206 14.6462L19 13.6565L17.0206 12.6668L16.0312 10.6877ZM18.6519 3.49689L15.5032 0.348093C15.2716 0.115784 14.9677 0 14.6638 0C14.3598 0 14.0559 0.115784 13.824 0.348093L0.348086 13.8243C-0.115781 14.2881 -0.115781 15.04 0.348086 15.5035L3.49682 18.6523C3.72875 18.8842 4.03268 19 4.33623 19C4.64016 19 4.94408 18.8842 5.17602 18.6523L18.6519 5.17575C19.1158 4.71261 19.1158 3.96039 18.6519 3.49689ZM13.339 7.55042L11.4497 5.66115L14.6634 2.44741L16.5526 4.33669L13.339 7.55042Z" fill="#1C274C"/>
</svg>
