<svg width="23" height="19" viewBox="0 0 23 19" fill="none" xmlns="http://www.w3.org/2000/svg">
<path fill-rule="evenodd" clip-rule="evenodd" d="M0 9.2C0 11.0853 0.488704 11.7202 1.46612 12.9901C3.41775 15.5255 6.69083 18.4 11.5 18.4C16.3092 18.4 19.5822 15.5255 21.5339 12.9901C22.5112 11.7202 23 11.0853 23 9.2C23 7.31469 22.5112 6.67981 21.5339 5.40998C19.5822 2.87449 16.3092 0 11.5 0C6.69083 0 3.41775 2.87449 1.46612 5.40998C0.488704 6.67981 0 7.31469 0 9.2ZM11.5 4.8875C9.11827 4.8875 7.1875 6.81827 7.1875 9.2C7.1875 11.5818 9.11827 13.5125 11.5 13.5125C13.8818 13.5125 15.8125 11.5818 15.8125 9.2C15.8125 6.81827 13.8818 4.8875 11.5 4.8875Z" fill="#1C274C"/>
</svg>
